<svg width="74" height="55" viewBox="0 0 74 55" fill="none" xmlns="http://www.w3.org/2000/svg">
<path d="M23.1529 12.8182H17.3446C17.3034 12.3376 17.1936 11.9016 17.0151 11.5103C16.8434 11.119 16.6031 10.7825 16.2942 10.5011C15.9921 10.2127 15.6248 9.99301 15.1923 9.84196C14.7598 9.68406 14.2689 9.6051 13.7196 9.6051C12.7584 9.6051 11.9449 9.83853 11.2789 10.3054C10.6198 10.7722 10.1187 11.4416 9.77538 12.3136C9.43896 13.1855 9.27076 14.2325 9.27076 15.4545C9.27076 16.7453 9.4424 17.8266 9.78567 18.6985C10.1358 19.5636 10.6404 20.2158 11.2995 20.6552C11.9586 21.0877 12.7516 21.304 13.6784 21.304C14.2071 21.304 14.6808 21.2387 15.0996 21.1083C15.5184 20.971 15.8823 20.7753 16.1912 20.5213C16.5002 20.2673 16.7508 19.9618 16.943 19.6047C17.1421 19.2409 17.276 18.8324 17.3446 18.3793L23.1529 18.4204C23.0842 19.313 22.8336 20.2226 22.4011 21.1495C21.9686 22.0695 21.3541 22.9208 20.5577 23.7035C19.7682 24.4793 18.7898 25.104 17.6227 25.5778C16.4555 26.0515 15.0996 26.2883 13.5549 26.2883C11.6188 26.2883 9.88179 25.873 8.34391 25.0422C6.8129 24.2115 5.60113 22.9895 4.70861 21.3761C3.82296 19.7627 3.38013 17.7888 3.38013 15.4545C3.38013 13.1065 3.83326 11.1293 4.73951 9.52272C5.64576 7.90932 6.86782 6.69068 8.4057 5.86682C9.94358 5.03609 11.66 4.62073 13.5549 4.62073C14.8868 4.62073 16.1123 4.80266 17.2313 5.16654C18.3504 5.53041 19.3322 6.06249 20.1767 6.76277C21.0211 7.45619 21.7008 8.31095 22.2157 9.32705C22.7306 10.3431 23.043 11.5069 23.1529 12.8182Z" fill="black"/>
<path d="M30.8207 26.2471C29.8114 26.2471 28.9189 26.0824 28.1431 25.7528C27.3742 25.4164 26.77 24.9084 26.3306 24.2287C25.8912 23.549 25.6715 22.6839 25.6715 21.6335C25.6715 20.7685 25.8191 20.0304 26.1143 19.4194C26.4096 18.8015 26.8215 18.2969 27.3501 17.9055C27.8788 17.5142 28.4932 17.2155 29.1935 17.0096C29.9007 16.8036 30.6628 16.6697 31.4798 16.6079C32.3654 16.5393 33.076 16.4569 33.6115 16.3608C34.1539 16.2578 34.5452 16.1171 34.7855 15.9386C35.0258 15.7532 35.1459 15.5095 35.1459 15.2074V15.1662C35.1459 14.7543 34.988 14.4384 34.6722 14.2187C34.3564 13.999 33.9513 13.8892 33.457 13.8892C32.9147 13.8892 32.4718 14.0093 32.1285 14.2496C31.7921 14.4831 31.5896 14.8435 31.5209 15.331H26.2894C26.3581 14.3698 26.6636 13.4841 27.206 12.674C27.7552 11.857 28.555 11.2048 29.6055 10.7173C30.6559 10.223 31.9672 9.97584 33.5394 9.97584C34.6722 9.97584 35.6883 10.1097 36.5877 10.3775C37.4871 10.6384 38.2526 11.0057 38.8842 11.4794C39.5159 11.9462 39.9964 12.4955 40.326 13.1271C40.6624 13.7519 40.8306 14.4316 40.8306 15.1662V26H35.5167V23.7756H35.3931C35.0773 24.366 34.6928 24.8431 34.2397 25.207C33.7934 25.5709 33.282 25.8352 32.7053 26C32.1354 26.1648 31.5072 26.2471 30.8207 26.2471ZM32.6744 22.6633C33.1069 22.6633 33.512 22.5741 33.8896 22.3956C34.274 22.2171 34.5864 21.9596 34.8267 21.6232C35.067 21.2868 35.1871 20.8783 35.1871 20.3977V19.0795C35.0361 19.1413 34.8748 19.1997 34.7031 19.2546C34.5383 19.3095 34.3598 19.361 34.1676 19.4091C33.9822 19.4571 33.7831 19.5018 33.5703 19.543C33.3643 19.5842 33.1481 19.6219 32.9215 19.6562C32.4821 19.7249 32.1217 19.8382 31.8402 19.9961C31.5656 20.1471 31.3596 20.3359 31.2223 20.5625C31.0919 20.7822 31.0266 21.0293 31.0266 21.304C31.0266 21.7434 31.1811 22.0798 31.4901 22.3132C31.799 22.5466 32.1938 22.6633 32.6744 22.6633Z" fill="black"/>
<path d="M53.56 10.1818V14.3011H43.1381V10.1818H53.56ZM45.1566 6.39203H50.8413V20.9126C50.8413 21.1323 50.879 21.3177 50.9546 21.4687C51.0301 21.6129 51.1468 21.7228 51.3047 21.7983C51.4626 21.8669 51.6651 21.9013 51.9123 21.9013C52.0839 21.9013 52.283 21.8807 52.5096 21.8395C52.743 21.7983 52.9147 21.764 53.0245 21.7365L53.8484 25.7322C53.5943 25.8078 53.2305 25.9004 52.7568 26.0103C52.2899 26.1201 51.7338 26.1922 51.0884 26.2266C49.784 26.2952 48.6889 26.1613 47.8033 25.8249C46.9176 25.4816 46.2517 24.9427 45.8054 24.2081C45.3591 23.4735 45.1429 22.5535 45.1566 21.4481V6.39203Z" fill="black"/>
<path d="M70.7486 15.331H65.5171C65.4896 15.0083 65.3763 14.7302 65.1772 14.4968C64.9781 14.2634 64.7207 14.0849 64.4049 13.9613C64.0959 13.8308 63.7526 13.7656 63.375 13.7656C62.8876 13.7656 62.4688 13.8549 62.1186 14.0334C61.7685 14.2119 61.5968 14.4659 61.6037 14.7954C61.5968 15.0289 61.6964 15.2451 61.9024 15.4442C62.1152 15.6433 62.5237 15.7978 63.1279 15.9077L66.3409 16.4844C67.9612 16.7796 69.1661 17.2773 69.9556 17.9776C70.752 18.671 71.1537 19.6013 71.1605 20.7685C71.1537 21.8944 70.8173 22.8727 70.1513 23.7035C69.4922 24.5273 68.5894 25.1658 67.4428 25.619C66.3032 26.0652 65.0021 26.2883 63.5398 26.2883C61.1231 26.2883 59.2317 25.794 57.8654 24.8054C56.5061 23.8168 55.7474 22.5123 55.5895 20.892H61.233C61.3085 21.3932 61.5557 21.7811 61.9744 22.0557C62.4001 22.3235 62.9356 22.4574 63.581 22.4574C64.1028 22.4574 64.5319 22.3681 64.8683 22.1896C65.2115 22.0111 65.3866 21.7571 65.3935 21.4275C65.3866 21.1255 65.2356 20.8852 64.9404 20.7067C64.652 20.5282 64.1989 20.384 63.581 20.2741L60.7799 19.7798C59.1665 19.4983 57.9581 18.9628 57.1549 18.1733C56.3516 17.3837 55.9534 16.3677 55.9602 15.125C55.9534 14.0265 56.2417 13.0962 56.8253 12.3342C57.4157 11.5652 58.2568 10.9816 59.3484 10.5834C60.4469 10.1784 61.7479 9.97584 63.2514 9.97584C65.5377 9.97584 67.3399 10.4496 68.658 11.397C69.9831 12.3444 70.6799 13.6558 70.7486 15.331Z" fill="black"/>
<path d="M8.83674 48H0.72168V26.9091H8.75435C10.9239 26.9091 12.7981 27.3313 14.3772 28.1758C15.9632 29.0134 17.1852 30.2217 18.0434 31.8008C18.9085 33.373 19.341 35.2576 19.341 37.4545C19.341 39.6515 18.9119 41.5395 18.0537 43.1186C17.1955 44.6908 15.9803 45.8991 14.4081 46.7436C12.8359 47.5812 10.9788 48 8.83674 48ZM6.44753 43.1392H8.63077C9.67433 43.1392 10.5634 42.971 11.298 42.6346C12.0395 42.2982 12.6025 41.718 12.9869 40.8942C13.3783 40.0703 13.574 38.9238 13.574 37.4545C13.574 35.9853 13.3749 34.8388 12.9767 34.0149C12.5853 33.191 12.0086 32.6109 11.2465 32.2745C10.4913 31.9381 9.56448 31.7699 8.466 31.7699H6.44753V43.1392Z" fill="black"/>
<path d="M29.6934 48.2883C27.977 48.2883 26.5078 47.9485 25.2857 47.2688C24.0636 46.5823 23.1265 45.6279 22.4743 44.4059C21.822 43.177 21.4959 41.7524 21.4959 40.1321C21.4959 38.5118 21.822 37.0907 22.4743 35.8686C23.1265 34.6397 24.0636 33.6854 25.2857 33.0057C26.5078 32.3191 27.977 31.9758 29.6934 31.9758C31.4097 31.9758 32.879 32.3191 34.101 33.0057C35.3231 33.6854 36.2602 34.6397 36.9125 35.8686C37.5647 37.0907 37.8908 38.5118 37.8908 40.1321C37.8908 41.7524 37.5647 43.177 36.9125 44.4059C36.2602 45.6279 35.3231 46.5823 34.101 47.2688C32.879 47.9485 31.4097 48.2883 29.6934 48.2883ZM29.7346 44.0866C30.2151 44.0866 30.6305 43.9253 30.9806 43.6026C31.3308 43.2799 31.602 42.8199 31.7942 42.2226C31.9864 41.6253 32.0826 40.9148 32.0826 40.0909C32.0826 39.2602 31.9864 38.5496 31.7942 37.9592C31.602 37.3619 31.3308 36.9019 30.9806 36.5792C30.6305 36.2565 30.2151 36.0952 29.7346 36.0952C29.2265 36.0952 28.7905 36.2565 28.4267 36.5792C28.0628 36.9019 27.7847 37.3619 27.5925 37.9592C27.4003 38.5496 27.3042 39.2602 27.3042 40.0909C27.3042 40.9148 27.4003 41.6253 27.5925 42.2226C27.7847 42.8199 28.0628 43.2799 28.4267 43.6026C28.7905 43.9253 29.2265 44.0866 29.7346 44.0866Z" fill="black"/>
<path d="M47.8184 54.2614C46.2324 54.2614 44.873 54.0348 43.7402 53.5817C42.6143 53.1354 41.7389 52.5175 41.1142 51.728C40.4963 50.9453 40.1496 50.0459 40.074 49.0298H45.5527C45.6077 49.3662 45.745 49.6374 45.9647 49.8434C46.1844 50.0493 46.4659 50.197 46.8091 50.2862C47.1593 50.3823 47.5506 50.4304 47.9831 50.4304C48.7177 50.4304 49.3253 50.2519 49.8059 49.8949C50.2934 49.5379 50.5371 48.8925 50.5371 47.9588V45.2812H50.3723C50.1664 45.8167 49.8506 46.2733 49.4249 46.6509C48.9992 47.0217 48.4878 47.3066 47.8904 47.5057C47.2931 47.6979 46.6375 47.794 45.9235 47.794C44.7975 47.794 43.7608 47.5331 42.8134 47.0114C41.8728 46.4896 41.1176 45.6623 40.5478 44.5295C39.9848 43.3967 39.7033 41.9171 39.7033 40.0909C39.7033 38.1823 39.9985 36.6307 40.589 35.4361C41.1863 34.2415 41.9552 33.3661 42.8958 32.81C43.8432 32.2539 44.8387 31.9758 45.8823 31.9758C46.6649 31.9758 47.3515 32.1132 47.9419 32.3878C48.5324 32.6555 49.0267 33.016 49.4249 33.4691C49.8231 33.9154 50.1252 34.4062 50.3311 34.9418H50.4547V32.1818H56.1394V47.9588C56.1394 49.2976 55.7927 50.4338 55.0993 51.3675C54.4127 52.3081 53.4447 53.0256 52.1951 53.5199C50.9456 54.0142 49.4867 54.2614 47.8184 54.2614ZM48.0243 43.7571C48.5461 43.7571 48.9924 43.6129 49.3631 43.3246C49.7407 43.0293 50.0291 42.6105 50.2282 42.0682C50.4341 41.5189 50.5371 40.8598 50.5371 40.0909C50.5371 39.3082 50.4341 38.6388 50.2282 38.0827C50.0291 37.5198 49.7407 37.0907 49.3631 36.7954C48.9924 36.4934 48.5461 36.3423 48.0243 36.3423C47.5025 36.3423 47.0563 36.4934 46.6855 36.7954C46.3217 37.0907 46.0402 37.5198 45.8411 38.0827C45.6489 38.6388 45.5527 39.3082 45.5527 40.0909C45.5527 40.8736 45.6489 41.5395 45.8411 42.0888C46.0402 42.6311 46.3217 43.0465 46.6855 43.3349C47.0563 43.6163 47.5025 43.7571 48.0243 43.7571Z" fill="black"/>
<path d="M73.4894 37.331H68.2579C68.2304 37.0083 68.1172 36.7302 67.9181 36.4968C67.719 36.2634 67.4615 36.0849 67.1457 35.9613C66.8367 35.8308 66.4935 35.7656 66.1159 35.7656C65.6284 35.7656 65.2096 35.8549 64.8595 36.0334C64.5093 36.2119 64.3377 36.4659 64.3445 36.7954C64.3377 37.0289 64.4372 37.2451 64.6432 37.4442C64.856 37.6433 65.2645 37.7978 65.8687 37.9077L69.0818 38.4844C70.702 38.7796 71.9069 39.2773 72.6965 39.9776C73.4929 40.671 73.8945 41.6013 73.9014 42.7685C73.8945 43.8944 73.5581 44.8727 72.8921 45.7035C72.233 46.5273 71.3302 47.1658 70.1837 47.619C69.044 48.0652 67.743 48.2883 66.2806 48.2883C63.864 48.2883 61.9725 47.794 60.6063 46.8054C59.2469 45.8167 58.4883 44.5123 58.3303 42.892H63.9738C64.0493 43.3932 64.2965 43.7811 64.7153 44.0557C65.1409 44.3235 65.6765 44.4574 66.3218 44.4574C66.8436 44.4574 67.2727 44.3681 67.6091 44.1896C67.9524 44.0111 68.1275 43.7571 68.1343 43.4275C68.1275 43.1255 67.9764 42.8852 67.6812 42.7067C67.3928 42.5282 66.9397 42.384 66.3218 42.2741L63.5207 41.7798C61.9073 41.4983 60.699 40.9628 59.8957 40.1733C59.0924 39.3838 58.6942 38.3676 58.7011 37.125C58.6942 36.0265 58.9826 35.0962 59.5661 34.3342C60.1566 33.5652 60.9976 32.9816 62.0892 32.5834C63.1877 32.1784 64.4887 31.9758 65.9923 31.9758C68.2785 31.9758 70.0807 32.4496 71.3989 33.397C72.7239 34.3444 73.4208 35.6558 73.4894 37.331Z" fill="black"/>
<path opacity="0.1" d="M33.2402 49.75C29.8027 49.75 26.8418 49.1406 24.3574 47.9219C21.873 46.7031 19.9668 45.0703 18.6387 43.0234C17.3105 40.9766 16.6465 38.7188 16.6465 36.25C16.6465 34.4531 16.9902 32.8672 17.6777 31.4922C18.3652 30.1016 19.3262 28.8281 20.5605 27.6719C21.7949 26.5156 23.2402 25.375 24.8965 24.25L35.7715 17.5C36.8652 16.8125 37.6074 16.1016 37.998 15.3672C38.3887 14.6172 38.584 13.9531 38.584 13.375C38.584 12.6094 38.3027 11.9297 37.7402 11.3359C37.1777 10.7422 36.3027 10.4531 35.1152 10.4688C34.3809 10.4688 33.748 10.6094 33.2168 10.8906C32.6855 11.1562 32.2715 11.5312 31.9746 12.0156C31.6934 12.5 31.5527 13.0781 31.5527 13.75C31.5527 14.6719 31.8184 15.6172 32.3496 16.5859C32.8809 17.5391 33.6074 18.5703 34.5293 19.6797C35.4512 20.7891 36.4902 22.0312 37.6465 23.4062L60.8965 49H47.959L28.459 28.375C27.5059 27.3594 26.4512 26.1172 25.2949 24.6484C24.1387 23.1641 23.1387 21.4922 22.2949 19.6328C21.4668 17.7734 21.0527 15.75 21.0527 13.5625C21.0527 11.125 21.6387 8.89844 22.8105 6.88281C23.9824 4.86719 25.623 3.25781 27.7324 2.05469C29.8418 0.851562 32.3027 0.25 35.1152 0.25C37.8027 0.25 40.1152 0.804687 42.0527 1.91406C44.0059 3.02344 45.5059 4.5 46.5527 6.34375C47.6152 8.1875 48.1465 10.2187 48.1465 12.4375C48.1465 14.6719 47.5918 16.7578 46.4824 18.6953C45.3887 20.6328 43.8184 22.3281 41.7715 23.7812L31.834 30.8125C31.0684 31.3438 30.4043 31.9531 29.8418 32.6406C29.2949 33.3281 29.0215 34.2188 29.0215 35.3125C29.0215 36.2188 29.2324 36.9922 29.6543 37.6328C30.0762 38.2734 30.6699 38.7656 31.4355 39.1094C32.2168 39.4531 33.1309 39.625 34.1777 39.625C35.7715 39.625 37.3652 39.2422 38.959 38.4766C40.5684 37.6953 42.0371 36.6094 43.3652 35.2188C44.6934 33.8125 45.7559 32.1562 46.5527 30.25C47.3652 28.3281 47.7715 26.2344 47.7715 23.9688H57.9902C57.9902 26.75 57.7012 29.4297 57.1231 32.0078C56.5449 34.5859 55.6152 36.9453 54.334 39.0859C53.0527 41.2266 51.3652 43.0313 49.2715 44.5C48.6152 44.8281 47.9746 45.1406 47.3496 45.4375C46.7246 45.7344 46.084 46.0469 45.4277 46.375C43.5059 47.6094 41.498 48.4844 39.4043 49C37.3105 49.5 35.2559 49.75 33.2402 49.75Z" fill="black"/>
</svg>
