<svg width="26" height="26" viewBox="0 0 26 26" fill="none" xmlns="http://www.w3.org/2000/svg">
<g clip-path="url(#clip0_2_18)">
<path d="M23.1924 15.0981L25.2442 6.07035C25.3923 5.41853 24.8969 4.79783 24.2284 4.79783H7.18058L6.78275 2.85295C6.68362 2.36818 6.25705 2.02005 5.76222 2.02005H1.31217C0.736871 2.02005 0.270508 2.48641 0.270508 3.06172V3.75616C0.270508 4.33146 0.736871 4.79783 1.31217 4.79783H4.34529L7.39425 19.7039C6.66482 20.1233 6.17329 20.9099 6.17329 21.8117C6.17329 23.1541 7.26148 24.2423 8.60384 24.2423C9.9462 24.2423 11.0344 23.1541 11.0344 21.8117C11.0344 21.1314 10.7546 20.5168 10.3042 20.0756H19.4034C18.9531 20.5168 18.6733 21.1314 18.6733 21.8117C18.6733 23.1541 19.7615 24.2423 21.1038 24.2423C22.4462 24.2423 23.5344 23.1541 23.5344 21.8117C23.5344 20.8494 22.975 20.0178 22.1638 19.624L22.4032 18.5704C22.5514 17.9185 22.0559 17.2978 21.3875 17.2978H9.73739L9.45332 15.9089H22.1766C22.663 15.9089 23.0846 15.5724 23.1924 15.0981Z" fill="black"/>
</g>
<defs>
<clipPath id="clip0_2_18">
<rect width="25" height="25" fill="white" transform="translate(0.270508 0.631165)"/>
</clipPath>
</defs>
</svg>
